<svg xmlns="http://www.w3.org/2000/svg" xmlns:xlink="http://www.w3.org/1999/xlink" width="500" zoomAndPan="magnify" viewBox="0 0 375 374.999991" height="500" preserveAspectRatio="xMidYMid meet" version="1.0"><defs><g/><clipPath id="1808756185"><path d="M 100 82 L 278.734375 82 L 278.734375 152 L 100 152 Z M 100 82 " clip-rule="nonzero"/></clipPath><clipPath id="bd5c40d195"><path d="M 126 107 L 252 107 L 252 240.964844 L 126 240.964844 Z M 126 107 " clip-rule="nonzero"/></clipPath></defs><rect x="-37.5" width="450" fill="#ffffff" y="-37.499999" height="449.999989" fill-opacity="1"/><rect x="-37.5" width="450" fill="#ffffff" y="-37.499999" height="449.999989" fill-opacity="1"/><g clip-path="url(#1808756185)"><path fill="#004aad" d="M 271.742188 151.890625 C 270.414062 151.886719 269.207031 151.503906 268.117188 150.746094 L 189.109375 96.171875 L 110.097656 150.746094 C 109.757812 150.957031 109.394531 151.136719 109.019531 151.28125 C 108.644531 151.425781 108.253906 151.53125 107.859375 151.601562 C 107.460938 151.671875 107.0625 151.707031 106.65625 151.699219 C 106.253906 151.695312 105.855469 151.652344 105.460938 151.570312 C 105.0625 151.488281 104.679688 151.371094 104.308594 151.214844 C 103.933594 151.058594 103.582031 150.871094 103.242188 150.648438 C 102.90625 150.429688 102.59375 150.175781 102.304688 149.894531 C 102.015625 149.613281 101.757812 149.308594 101.527344 148.976562 C 101.296875 148.644531 101.101562 148.296875 100.9375 147.929688 C 100.773438 147.558594 100.644531 147.179688 100.554688 146.789062 C 100.464844 146.394531 100.410156 145.996094 100.394531 145.59375 C 100.378906 145.191406 100.402344 144.792969 100.464844 144.394531 C 100.523438 143.996094 100.621094 143.605469 100.757812 143.226562 C 100.894531 142.847656 101.0625 142.484375 101.269531 142.136719 C 101.472656 141.789062 101.707031 141.464844 101.972656 141.164062 C 102.242188 140.859375 102.535156 140.585938 102.851562 140.339844 L 185.484375 83.226562 C 186.015625 82.859375 186.59375 82.578125 187.210938 82.382812 C 187.828125 82.191406 188.460938 82.09375 189.109375 82.09375 C 189.757812 82.09375 190.390625 82.191406 191.007812 82.382812 C 191.625 82.578125 192.199219 82.859375 192.730469 83.226562 L 275.363281 140.339844 C 275.707031 140.578125 276.023438 140.847656 276.3125 141.144531 C 276.597656 141.445312 276.855469 141.769531 277.082031 142.121094 C 277.304688 142.472656 277.496094 142.839844 277.648438 143.226562 C 277.800781 143.613281 277.910156 144.011719 277.984375 144.421875 C 278.058594 144.832031 278.09375 145.242188 278.085938 145.660156 C 278.078125 146.074219 278.03125 146.488281 277.941406 146.894531 C 277.851562 147.300781 277.726562 147.695312 277.558594 148.074219 C 277.394531 148.457031 277.191406 148.816406 276.953125 149.160156 C 276.359375 150.011719 275.605469 150.679688 274.683594 151.164062 C 273.761719 151.644531 272.78125 151.886719 271.742188 151.890625 Z M 271.742188 151.890625 " fill-opacity="1" fill-rule="nonzero"/></g><g clip-path="url(#bd5c40d195)"><path fill="#ffbd59" d="M 245.171875 240.730469 L 133.046875 240.730469 C 132.628906 240.730469 132.214844 240.691406 131.804688 240.609375 C 131.394531 240.527344 131 240.40625 130.613281 240.246094 C 130.226562 240.089844 129.859375 239.894531 129.515625 239.660156 C 129.167969 239.429688 128.847656 239.167969 128.550781 238.871094 C 128.253906 238.578125 127.992188 238.257812 127.761719 237.910156 C 127.527344 237.5625 127.332031 237.199219 127.171875 236.8125 C 127.011719 236.429688 126.890625 236.03125 126.8125 235.625 C 126.730469 235.214844 126.6875 234.800781 126.6875 234.386719 L 126.6875 153.03125 C 126.683594 152 126.917969 151.023438 127.386719 150.105469 C 127.859375 149.183594 128.515625 148.425781 129.359375 147.828125 L 185.484375 108.609375 C 186.015625 108.242188 186.59375 107.960938 187.210938 107.769531 C 187.828125 107.574219 188.460938 107.476562 189.109375 107.476562 C 189.757812 107.476562 190.390625 107.574219 191.007812 107.769531 C 191.625 107.960938 192.199219 108.242188 192.730469 108.609375 L 248.859375 147.828125 C 249.699219 148.425781 250.359375 149.183594 250.828125 150.105469 C 251.300781 151.023438 251.535156 152 251.527344 153.03125 L 251.527344 234.386719 C 251.527344 234.800781 251.488281 235.214844 251.40625 235.625 C 251.324219 236.03125 251.203125 236.429688 251.042969 236.8125 C 250.886719 237.199219 250.6875 237.5625 250.457031 237.910156 C 250.226562 238.257812 249.960938 238.578125 249.667969 238.871094 C 249.371094 239.167969 249.050781 239.429688 248.703125 239.660156 C 248.355469 239.894531 247.988281 240.089844 247.605469 240.246094 C 247.21875 240.40625 246.820312 240.527344 246.410156 240.609375 C 246.003906 240.691406 245.589844 240.730469 245.171875 240.730469 Z M 139.402344 228.039062 L 238.816406 228.039062 L 238.816406 156.332031 L 189.109375 121.554688 L 139.402344 156.332031 Z M 139.402344 228.039062 " fill-opacity="1" fill-rule="nonzero"/></g><g fill="#004aad" fill-opacity="1"><g transform="translate(173.429876, 219.082474)"><g><path d="M 9.597656 -16.566406 L 8.886719 -77.167969 L 22.324219 -77.167969 L 21.515625 -16.566406 Z M 9.089844 4.847656 L 9.089844 -8.484375 L 21.917969 -8.484375 L 21.917969 4.847656 Z M 9.089844 4.847656 "/></g></g></g><g fill="#004aad" fill-opacity="1"><g transform="translate(62.049264, 285.20377)"><g><path d="M 11.699219 -8.988281 C 13.109375 -4.476562 18.433594 -1.269531 20.722656 -0.847656 L 23.082031 -6.660156 L 22.765625 -6.800781 L 21.390625 -6.378906 C 17.515625 -7.964844 14.730469 -12.828125 14.730469 -17.515625 L 14.730469 -22.308594 L 19.945312 -22.308594 C 20.371094 -22.308594 21.425781 -21.710938 21.605469 -21.214844 L 21.605469 -27.523438 L 1.199219 -27.523438 L 1.199219 -21.285156 C 1.304688 -21.746094 2.539062 -22.308594 2.855469 -22.308594 L 8.667969 -22.308594 L 8.667969 -17.867188 C 8.667969 -12.792969 5.921875 -7.4375 1.550781 -6.203125 L 0.175781 -6.625 L 0 -6.519531 L 2.46875 -0.386719 C 5.074219 -0.8125 10.148438 -3.839844 11.699219 -8.988281 Z M 23.367188 -27.699219 C 23.929688 -27.382812 24.738281 -26.21875 24.8125 -25.515625 L 24.8125 0.847656 L 30.730469 0.847656 L 30.730469 -28.054688 L 23.367188 -28.054688 Z M 23.367188 -27.699219 "/></g></g></g><g fill="#004aad" fill-opacity="1"><g transform="translate(95.177175, 285.20377)"><g><path d="M 22.273438 -9.445312 C 22.273438 -15.4375 17.550781 -18.398438 12.054688 -18.398438 C 6.554688 -18.398438 1.832031 -15.4375 1.832031 -9.445312 C 1.832031 -3.453125 6.554688 -0.492188 12.054688 -0.492188 C 17.550781 -0.492188 22.273438 -3.453125 22.273438 -9.445312 Z M 23.011719 -27.699219 C 23.578125 -27.382812 24.386719 -26.21875 24.457031 -25.515625 L 24.457031 0.847656 L 30.378906 0.847656 L 30.378906 -10.609375 L 34.925781 -10.609375 L 34.925781 -16.386719 L 30.378906 -16.386719 L 30.378906 -28.054688 L 23.011719 -28.054688 Z M 7.613281 -28.546875 L 7.613281 -28.195312 C 8.527344 -27.804688 8.988281 -26.433594 8.988281 -26.433594 L 8.988281 -24.351562 L 0.667969 -24.351562 L 0.667969 -18.007812 C 0.8125 -18.644531 1.902344 -19.242188 2.539062 -19.207031 L 21.109375 -19.207031 C 21.78125 -19.207031 22.765625 -18.714844 22.976562 -18.113281 L 22.976562 -24.351562 L 15.4375 -24.351562 L 15.4375 -28.546875 Z M 7.71875 -9.445312 C 7.71875 -11.699219 9.234375 -13.675781 12.054688 -13.675781 C 14.871094 -13.675781 16.386719 -11.699219 16.386719 -9.445312 C 16.386719 -7.1875 14.871094 -5.214844 12.054688 -5.214844 C 9.234375 -5.214844 7.71875 -7.1875 7.71875 -9.445312 Z M 7.71875 -9.445312 "/></g></g></g><g fill="#004aad" fill-opacity="1"><g transform="translate(130.772058, 285.20377)"><g/></g></g><g fill="#004aad" fill-opacity="1"><g transform="translate(143.106922, 285.20377)"><g><path d="M 11.242188 -28.476562 C 4.441406 -28.476562 0.492188 -24.457031 0.492188 -19.242188 C 0.492188 -14.027344 4.441406 -10.007812 11.242188 -10.007812 C 18.042969 -10.007812 21.992188 -14.027344 21.992188 -19.242188 C 21.992188 -24.457031 18.042969 -28.476562 11.242188 -28.476562 Z M 10.007812 -3.769531 L 10.007812 -8.8125 L 2.609375 -8.8125 L 2.609375 -8.597656 C 3.3125 -8.105469 3.945312 -6.730469 3.945312 -6.730469 L 3.945312 1.164062 L 22.835938 1.164062 C 26.042969 1.164062 29.179688 0.703125 31.046875 0 L 31.046875 -5.179688 C 29.460938 -4.019531 25.832031 -3.769531 22.800781 -3.769531 Z M 23.296875 -27.664062 C 24.210938 -27.277344 24.667969 -25.902344 24.667969 -25.902344 L 24.667969 -7.542969 L 30.625 -7.542969 L 30.625 -15.71875 L 34.785156 -15.71875 L 34.785156 -20.617188 L 30.625 -20.617188 L 30.625 -28.019531 L 23.296875 -28.019531 Z M 11.242188 -14.625 C 8.492188 -14.625 6.378906 -16.457031 6.378906 -19.242188 C 6.378906 -22.027344 8.492188 -23.859375 11.242188 -23.859375 C 13.992188 -23.859375 16.105469 -22.027344 16.105469 -19.242188 C 16.105469 -16.457031 13.992188 -14.625 11.242188 -14.625 Z M 11.242188 -14.625 "/></g></g></g><g fill="#004aad" fill-opacity="1"><g transform="translate(178.701805, 285.20377)"><g><path d="M 11.3125 -14.167969 C 12.160156 -12.546875 14.273438 -11.03125 17.199219 -10.113281 C 18.113281 -9.832031 20.019531 -9.585938 20.96875 -9.621094 L 21.992188 -15.296875 L 20.582031 -14.625 C 19.347656 -14.625 18.042969 -15.011719 17.09375 -15.613281 C 15.507812 -16.597656 14.34375 -18.398438 14.34375 -20.757812 L 14.34375 -22.765625 L 19.59375 -22.765625 C 20.019531 -22.765625 21.074219 -22.167969 21.25 -21.675781 L 21.25 -27.664062 L 0.988281 -27.664062 L 0.988281 -21.746094 C 1.09375 -22.203125 2.324219 -22.765625 2.644531 -22.765625 L 8.28125 -22.765625 L 8.28125 -20.933594 C 8.28125 -18.574219 7.296875 -16.527344 5.320312 -15.507812 C 4.300781 -14.941406 2.996094 -14.484375 1.796875 -14.554688 L 0.386719 -15.226562 L 1.410156 -9.128906 C 2.359375 -9.09375 4.371094 -9.410156 5.285156 -9.691406 C 8.492188 -10.75 10.46875 -12.40625 11.3125 -14.167969 Z M 10.359375 -3.769531 L 10.359375 -8.210938 L 2.960938 -8.210938 L 2.960938 -8 C 3.664062 -7.507812 4.300781 -6.308594 4.300781 -6.308594 L 4.300781 1.164062 L 23.191406 1.164062 C 26.398438 1.164062 29.53125 0.703125 31.402344 0 L 31.402344 -5.179688 C 29.816406 -4.019531 26.183594 -3.769531 23.152344 -3.769531 Z M 19.839844 -21.285156 L 19.839844 -15.4375 C 19.945312 -15.683594 20.441406 -16.105469 21.144531 -16.105469 L 25.199219 -16.105469 L 25.199219 -7.542969 L 31.152344 -7.542969 L 31.152344 -28.019531 L 23.824219 -28.019531 L 23.824219 -27.664062 C 24.738281 -27.277344 25.199219 -25.902344 25.199219 -25.902344 L 25.199219 -21.285156 Z M 19.839844 -21.285156 "/></g></g></g><g fill="#004aad" fill-opacity="1"><g transform="translate(211.829716, 285.20377)"><g/></g></g><g fill="#004aad" fill-opacity="1"><g transform="translate(224.16458, 285.20377)"><g><path d="M 11.699219 -8.988281 C 13.109375 -4.476562 18.433594 -1.269531 20.722656 -0.847656 L 23.082031 -6.660156 L 22.765625 -6.800781 L 21.390625 -6.378906 C 17.515625 -7.964844 14.730469 -12.828125 14.730469 -17.515625 L 14.730469 -22.308594 L 19.945312 -22.308594 C 20.371094 -22.308594 21.425781 -21.710938 21.605469 -21.214844 L 21.605469 -27.523438 L 1.199219 -27.523438 L 1.199219 -21.285156 C 1.304688 -21.746094 2.539062 -22.308594 2.855469 -22.308594 L 8.667969 -22.308594 L 8.667969 -17.867188 C 8.667969 -12.792969 5.921875 -7.4375 1.550781 -6.203125 L 0.175781 -6.625 L 0 -6.519531 L 2.46875 -0.386719 C 5.074219 -0.8125 10.148438 -3.839844 11.699219 -8.988281 Z M 23.367188 -27.699219 C 23.929688 -27.382812 24.738281 -26.21875 24.8125 -25.515625 L 24.8125 0.847656 L 30.730469 0.847656 L 30.730469 -28.054688 L 23.367188 -28.054688 Z M 23.367188 -27.699219 "/></g></g></g><g fill="#004aad" fill-opacity="1"><g transform="translate(257.292491, 285.20377)"><g><path d="M 1.832031 -10.148438 C 2.644531 -9.410156 3.136719 -8.140625 3.136719 -8.140625 L 3.136719 1.550781 L 14.414062 1.550781 C 16.953125 1.550781 21.710938 1.304688 23.964844 0.28125 L 23.964844 1.832031 L 29.921875 1.832031 L 29.921875 -10.433594 L 1.832031 -10.433594 Z M 0.988281 -22.835938 C 1.410156 -23.402344 2.078125 -23.683594 2.609375 -23.683594 L 14.589844 -23.683594 L 14.589844 -21.816406 L 1.621094 -21.816406 L 1.621094 -17.304688 C 2.007812 -18.042969 2.925781 -18.007812 3.277344 -18.007812 L 13.144531 -18.007812 C 12.160156 -17.164062 10.609375 -16.527344 8.28125 -16.105469 C 6.273438 -15.71875 3.945312 -15.648438 2.007812 -15.789062 L 0.597656 -16.492188 L 1.304688 -11.101562 C 3.769531 -10.925781 8.8125 -11.171875 11.453125 -11.910156 C 18.253906 -13.816406 20.40625 -17.445312 20.40625 -21.992188 L 20.40625 -27.664062 L 0.988281 -27.664062 Z M 22.589844 -27.664062 C 23.507812 -27.277344 23.964844 -25.902344 23.964844 -25.902344 L 23.964844 -11.59375 L 29.921875 -11.59375 L 29.921875 -28.019531 L 22.589844 -28.019531 Z M 14.730469 -2.996094 L 9.164062 -2.996094 L 9.164062 -5.957031 L 23.964844 -5.957031 L 23.964844 -4.265625 C 21.675781 -3.207031 17.199219 -2.996094 14.730469 -2.996094 Z M 14.730469 -2.996094 "/></g></g></g><g fill="#004aad" fill-opacity="1"><g transform="translate(290.06797, 285.20377)"><g><path d="M 23.71875 -27.699219 C 24.28125 -27.382812 25.09375 -26.21875 25.164062 -25.515625 L 25.164062 0.847656 L 31.082031 0.847656 L 31.082031 -28.054688 L 23.71875 -28.054688 Z M 11.699219 -5.320312 C 8.8125 -5.320312 6.871094 -8.5625 6.871094 -14.203125 C 6.871094 -19.839844 8.8125 -23.082031 11.699219 -23.082031 C 14.589844 -23.082031 16.527344 -19.839844 16.527344 -14.203125 C 16.527344 -8.5625 14.589844 -5.320312 11.699219 -5.320312 Z M 11.699219 -0.316406 C 14.800781 -0.316406 17.445312 -1.339844 19.488281 -3.769531 C 21.355469 -5.957031 22.414062 -9.902344 22.414062 -14.203125 C 22.414062 -18.503906 21.355469 -22.449219 19.488281 -24.632812 C 17.445312 -27.066406 14.800781 -28.089844 11.699219 -28.089844 C 8.597656 -28.089844 5.957031 -27.066406 3.910156 -24.632812 C 2.042969 -22.449219 0.988281 -18.503906 0.988281 -14.203125 C 0.988281 -9.902344 2.042969 -5.957031 3.910156 -3.769531 C 5.957031 -1.339844 8.597656 -0.316406 11.699219 -0.316406 Z M 11.699219 -0.316406 "/></g></g></g></svg>